<svg width="39.7" height="45" viewBox="0 0 39.7 45" xmlns="http://www.w3.org/2000/svg">
  <polygon fill="#2AABD3" points="19.8 0 0 10.137 0 12.663 19.8 22.8 19.8 19.611 3.762 11.401 19.8 3.188"/>
  <polygon fill="#FFFFFF" class="sourcery-logo__stroke" points="19.8 0 19.8 3.19 35.838 11.4 19.8 19.611 19.8 22.8 39.6 12.663 39.6 10.137"/>
  <polygon fill="#C92B28" points="0 34.37 19.832 45 39.7 34.37 39.7 12.6 36.854 14.047 36.854 32.684 19.834 41.789 2.846 32.684 2.846 14.047 0 12.6"/>
  <path style="fill:#2c2c2c;stroke-width:0.0876339;fill-opacity:1" d="m 11.348588,37.191035 -8.4566698,-4.537713 -0.022307,-9.237977 -0.022307,-9.237976 0.7233779,0.371024 c 0.397858,0.204063 4.2106811,2.155539 8.4729409,4.336611 l 7.749562,3.965588 0.53184,-0.264393 c 0.292512,-0.145416 4.120447,-2.101692 8.506523,-4.34728 l 7.974684,-4.082886 0.02231,9.2171 c 0.01227,5.069406 -0.0074,9.244532 -0.04382,9.278058 -0.06288,0.05797 -16.165566,8.677775 -16.716567,8.948422 -0.262292,0.128836 -0.282535,0.118601 -8.719572,-4.408578 z"/>
  <path style="fill:#2c2c2c;fill-opacity:1;stroke-width:0.0876339" d="M 11.893068,15.513933 C 7.5413639,13.283703 3.963692,11.441784 3.9426863,11.420778 3.9045729,11.382664 19.519385,3.3557489 19.737252,3.3014582 19.830779,3.2781522 30.177347,8.5167854 34.59615,10.824756 l 1.120005,0.584987 -7.166743,3.663191 c -3.941709,2.014756 -7.521661,3.850566 -7.955449,4.079577 l -0.788705,0.416384 z"/>
</svg>